{
  "accessors": [
    {
      "bufferView": 2,
      "componentType": 5126,
      "count": 13802,
      "max": [
        139.58154296875,
        141.17620849609375,
        38.820499420166016
      ],
      "min": [
        -139.58154296875,
        -358.5449523925781,
        0.039898019284009933
      ],
      "type": "VEC3"
    },
    {
      "bufferView": 2,
      "byteOffset": 165624,
      "componentType": 5126,
      "count": 13802,
      "max": [
        1.0,
        1.0,
        1.0
      ],
      "min": [
        -1.0,
        -1.0,
        -1.0
      ],
      "type": "VEC3"
    },
    {
      "bufferView": 1,
      "componentType": 5126,
      "count": 13802,
      "max": [
        1.0416666269302368,
        1.0
      ],
      "min": [
        0.0,
        0.0
      ],
      "type": "VEC2"
    },
    {
      "bufferView": 0,
      "componentType": 5125,
      "count": 38460,
      "type": "SCALAR"
    },
    {
      "bufferView": 2,
      "byteOffset": 331248,
      "componentType": 5126,
      "count": 1633,
      "max": [
        132.58607482910156,
        137.0883026123047,
        35.89765930175781
      ],
      "min": [
        -132.58607482910156,
        -222.47314453125,
        2.962718963623047
      ],
      "type": "VEC3"
    },
    {
      "bufferView": 2,
      "byteOffset": 350844,
      "componentType": 5126,
      "count": 1633,
      "max": [
        0.9905677437782288,
        0.9986509680747986,
        1.0
      ],
      "min": [
        -0.9905677437782288,
        -1.0,
        -1.0
      ],
      "type": "VEC3"
    },
    {
      "bufferView": 1,
      "byteOffset": 110416,
      "componentType": 5126,
      "count": 1633,
      "max": [
        1.0416666269302368,
        0.875510036945343
      ],
      "min": [
        0.0,
        0.017037004232406616
      ],
      "type": "VEC2"
    },
    {
      "bufferView": 0,
      "byteOffset": 153840,
      "componentType": 5125,
      "count": 7152,
      "type": "SCALAR"
    },
    {
      "bufferView": 2,
      "byteOffset": 370440,
      "componentType": 5126,
      "count": 2380,
      "max": [
        119.4042739868164,
        123.81526184082031,
        21.54917335510254
      ],
      "min": [
        -119.4042739868164,
        -125.71515655517578,
        17.311052322387695
      ],
      "type": "VEC3"
    },
    {
      "bufferView": 2,
      "byteOffset": 399000,
      "componentType": 5126,
      "count": 2380,
      "max": [
        1.0,
        1.0,
        1.0
      ],
      "min": [
        -1.0,
        -1.0,
        -1.0
      ],
      "type": "VEC3"
    },
    {
      "bufferView": 1,
      "byteOffset": 123480,
      "componentType": 5126,
      "count": 2380,
      "max": [
        1.0416666269302368,
        1.0
      ],
      "min": [
        0.041666656732559204,
        0.13052615523338318
      ],
      "type": "VEC2"
    },
    {
      "bufferView": 0,
      "byteOffset": 182448,
      "componentType": 5125,
      "count": 8424,
      "type": "SCALAR"
    }
  ],
  "asset": {
    "extras": {
      "author": "Anthony Yanez (https://sketchfab.com/paulyanez)",
      "license": "CC-BY-4.0 (http://creativecommons.org/licenses/by/4.0/)",
      "source": "https://sketchfab.com/3d-models/tennis-racket-c314dcce06ba488ca624957f579b8196",
      "title": "Tennis Racket"
    },
    "generator": "Sketchfab-12.66.0",
    "version": "2.0"
  },
  "bufferViews": [
    {
      "buffer": 0,
      "byteLength": 216144,
      "name": "floatBufferViews",
      "target": 34963
    },
    {
      "buffer": 0,
      "byteLength": 142520,
      "byteOffset": 216144,
      "byteStride": 8,
      "name": "floatBufferViews",
      "target": 34962
    },
    {
      "buffer": 0,
      "byteLength": 427560,
      "byteOffset": 358664,
      "byteStride": 12,
      "name": "floatBufferViews",
      "target": 34962
    }
  ],
  "buffers": [
    {
      "byteLength": 786224,
      "uri": "scene.bin"
    }
  ],
  "materials": [
    {
      "doubleSided": true,
      "name": "03_-_Default",
      "pbrMetallicRoughness": {
        "baseColorFactor": [
          0.0,
          0.0,
          0.0,
          1.0
        ],
        "roughnessFactor": 0.3214557927
      }
    },
    {
      "doubleSided": true,
      "name": "02_-_Default",
      "pbrMetallicRoughness": {
        "baseColorFactor": [
          0.0,
          0.3529410000000001,
          1.0,
          1.0
        ],
        "roughnessFactor": 0.48608993899999997
      }
    },
    {
      "doubleSided": true,
      "name": "07_-_Default",
      "pbrMetallicRoughness": {
        "roughnessFactor": 0.8929713596
      }
    }
  ],
  "meshes": [
    {
      "name": "Tennis Racket_03 - Default_0",
      "primitives": [
        {
          "attributes": {
            "NORMAL": 1,
            "POSITION": 0,
            "TEXCOORD_0": 2
          },
          "indices": 3,
          "material": 0,
          "mode": 4
        }
      ]
    },
    {
      "name": "Tennis Racket_02 - Default_0",
      "primitives": [
        {
          "attributes": {
            "NORMAL": 5,
            "POSITION": 4,
            "TEXCOORD_0": 6
          },
          "indices": 7,
          "material": 1,
          "mode": 4
        }
      ]
    },
    {
      "name": "Tennis Racket_07 - Default_0",
      "primitives": [
        {
          "attributes": {
            "NORMAL": 9,
            "POSITION": 8,
            "TEXCOORD_0": 10
          },
          "indices": 11,
          "material": 2,
          "mode": 4
        }
      ]
    }
  ],
  "nodes": [
    {
      "children": [
        1
      ],
      "matrix": [
        1.0,
        0.0,
        0.0,
        0.0,
        0.0,
        2.220446049250313e-16,
        -1.0,
        0.0,
        0.0,
        1.0,
        2.220446049250313e-16,
        0.0,
        0.0,
        0.0,
        0.0,
        1.0
      ],
      "name": "Sketchfab_model"
    },
    {
      "children": [
        2
      ],
      "matrix": [
        1.0,
        0.0,
        0.0,
        0.0,
        0.0,
        0.0,
        1.0,
        0.0,
        0.0,
        -1.0,
        0.0,
        0.0,
        0.0,
        0.0,
        0.0,
        1.0
      ],
      "name": "63f3706a3dc247458384c968ac14ac6d.fbx"
    },
    {
      "children": [
        3
      ],
      "name": "RootNode"
    },
    {
      "children": [
        4,
        5,
        6
      ],
      "matrix": [
        1.0,
        0.0,
        0.0,
        0.0,
        0.0,
        1.3825509548187072,
        2.252461426948189e-07,
        0.0,
        0.0,
        -1.0566392205871003e-07,
        0.6485605239868077,
        0.0,
        0.0,
        0.0,
        0.0,
        1.0
      ],
      "name": "Tennis Racket"
    },
    {
      "mesh": 0,
      "name": "Tennis Racket_03 - Default_0"
    },
    {
      "mesh": 1,
      "name": "Tennis Racket_02 - Default_0"
    },
    {
      "mesh": 2,
      "name": "Tennis Racket_07 - Default_0"
    }
  ],
  "scene": 0,
  "scenes": [
    {
      "name": "Sketchfab_Scene",
      "nodes": [
        0
      ]
    }
  ]
}
